<?xml version="1.0" encoding="UTF-8" standalone="no"?><svg width="352" height="332" viewBox="0 0 352 332" xmlns="http://www.w3.org/2000/svg" xmlns:xlink="http://www.w3.org/1999/xlink"><svg width="20" height="20" viewBox="0 0 20 20" id="action-back-dark" x="189" y="287"><title>60B20C7C-29DE-4B53-833E-792C6CA45F51</title><path fill="#515A5F" d="M3.75 11.25h10.167L9.25 15.917l1.167 1.166 6.666-6.666-6.666-6.667L9.25 4.917l4.667 4.666H3.75z" fill-rule="evenodd"/></svg><svg width="18" height="18" viewBox="0 0 18 18" id="action_close_dark-ve" x="101" y="252"><title>action_close_dark-ve</title><path d="M8.96 10.642L2.44 17.16.71 15.43 7.227 8.91.709 2.391 2.391.71 8.91 7.228 15.429.709l1.731 1.732-6.518 6.518 6.469 6.47-1.682 1.682-6.47-6.47z" fill="#FFF" fill-rule="evenodd"/></svg><svg width="22" height="20" viewBox="0 0 22 20" id="activity" x="86" y="287"><title>activity</title><path d="M0 12h2v8H0v-8zm4-7h2v15H4V5zm4 2h2v13H8V7zm4-7h2v20h-2V0zm4 4h2v16h-2V4zm4 6h2v10h-2V10z" fill="#F5F5F5" fill-rule="evenodd"/></svg><svg width="10" height="10" viewBox="0 0 10 10" id="activity_cross" x="200" y="242"><title>icons/activity_cross</title><path d="M6.429 5L10 1.429 8.571 0 5 3.571 1.429 0 0 1.429 3.571 5 0 8.571 1.429 10 5 6.429 8.571 10 10 8.571 6.429 5z" fill="#FE5F55" fill-rule="evenodd"/></svg><svg width="11" height="8" viewBox="0 0 11 8" id="activity_tick" x="339" y="186"><title>icons/activity_tick</title><path d="M4.428 7.691l.003.003 6.366-6.28L9.383 0 4.33 5.052 1.414 2.135 0 3.549l4.384 4.187.044-.045z" fill="#39C48E" fill-rule="evenodd"/></svg><svg width="22" height="23" viewBox="0 0 22 23" id="add_friend" x="20" y="287"><title>add_friend</title><path d="M11.5 10.5a3.5 3.5 0 1 1-7 0 3.5 3.5 0 0 1 7 0zM19 5h3V3h-3V0h-2v3h-3v2h3v3h2V5zM8 5a5.5 5.5 0 1 0 0 11A5.5 5.5 0 0 0 8 5zM1.558 22.445C2.668 21.323 5.143 19.96 8 20c2.857-.04 5.287 1.146 6.633 2.445L16 21c-2.128-1.893-4.927-3-8-3-3.067 0-5.87 1.11-8 3l1.558 1.445z" fill="#F5F5F5" fill-rule="evenodd"/></svg><svg width="20" height="20" viewBox="0 0 20 20" id="alert" x="78" y="310"><title>icons/alert</title><g transform="translate(-2 -2)" fill="#F97273" fill-rule="evenodd"><path d="M12 22c5.523 0 10-4.477 10-10S17.523 2 12 2 2 6.477 2 12s4.477 10 10 10zm0-2a8 8 0 1 1 0-16 8 8 0 0 1 0 16z"/><path d="M12.235 6H14l-1.765 8h-1.812l1.812-8zM11 16.062c-.552 0-1 .434-1 .969 0 .535.448.969 1 .969s1-.434 1-.97c0-.534-.448-.968-1-.968z"/></g></svg><svg width="50" height="50" viewBox="0 0 50 50" id="alert-danger" x="150" y="202"><title>24A8774E-1227-4754-A10F-35324407936C</title><g fill="none" fill-rule="evenodd"><rect fill="#FE5F55" width="50" height="50" rx="25"/><path d="M26.198 24.924l5.574-5.574-1.359-1.359-5.573 5.574-5.257-5.257-1.359 1.359 5.257 5.257-5.408 5.407 1.359 1.36 5.408-5.409 5.724 5.725 1.36-1.359-5.726-5.724z" fill="#FFF"/></g></svg><svg width="50" height="50" viewBox="0 0 50 50" id="alert-info" x="100" y="202"><title>C1F960B7-5EBE-425D-A3A2-EAE9BDB56BA3</title><g fill="none" fill-rule="evenodd"><rect fill="#2D9FFF" width="50" height="50" rx="25"/><path d="M24 33h2V23h-2v10zm0-14h2v-2h-2v2z" fill="#FFF"/></g></svg><svg width="50" height="50" viewBox="0 0 50 50" id="alert-success" x="50" y="202"><title>B37A5680-3EA9-4283-A96C-9C8FFBE57E6C</title><g fill="none" fill-rule="evenodd"><rect fill="#39C48E" width="50" height="50" rx="25"/><path d="M23.108 30.229l.029.026L33 20.481 31.519 19l-8.797 8.797-4.24-4.241L17 25.037l5.753 5.547.355-.355z" fill="#FFF"/></g></svg><svg width="50" height="50" viewBox="0 0 50 50" id="alert-warning" y="202"><title>26CBD90A-9462-4434-AB12-1F2E06325FD6</title><g fill="none" fill-rule="evenodd"><rect fill="#FFB946" width="50" height="50" rx="25"/><path d="M24 17h2v10h-2V17zm0 14h2v2h-2v-2z" fill="#FFF"/></g></svg><svg width="22" height="20" viewBox="0 0 22 20" id="applications" x="108" y="287"><title>applications</title><g fill="#F5F5F5" fill-rule="evenodd"><path d="M19.794 9l2.185 1-10.927 5L0 10l2.21-1 2.198.994-.012.006 6.63 3 .013-.006.013.006 8.742-4z"/><path d="M19.794 14l2.185 1-10.927 5L0 15l2.21-1 2.198.994-.012.006 6.63 3 .013-.006.013.006 8.742-4zM11.066 0l10.928 5-10.928 5L.015 5l11.051-5zm-.022 2l6.952 3-6.952 3-7.031-3 7.03-3z"/></g></svg><svg width="22" height="16" viewBox="0 0 22 16" id="billing" x="297" y="180"><title>billing</title><path d="M20.5 0H0v16h22V0h-1.5zM20 2H2v2h18V2zm0 4H2v8h18V6zm-9 4h7v2h-7v-2zm-4 0h2v2H7v-2z" fill="#F5F5F5" fill-rule="evenodd"/></svg><svg width="6" height="8" viewBox="0 0 6 8" id="breadcrumb-separator" x="210" y="242"><title>Triangle 1</title><path d="M6 4L.375 8V0z" fill="#515A5F" fill-rule="evenodd"/></svg><svg width="25" height="24" viewBox="0 0 25 24" id="color" x="32" y="252"><title>color</title><g transform="rotate(45 10.621 23.657)" stroke="#BFC2C4" stroke-width="2" fill="none" fill-rule="evenodd"><path d="M2 27.08c0-.186.106-.465.296-.845a13.711 13.711 0 0 1 .486-.877L3 25l.218.357.12.202a13.71 13.71 0 0 1 .366.676c.19.38.296.66.296.845 0 .508-.5.92-1 .92s-1-.412-1-.92zM1 1.414L2.924 0 5 1.414V7H1V1.414zM1 11h4v8.333L4.2 21H1.8L1 19.333z"/><rect y="7" width="6" height="4" rx="2"/></g></svg><svg width="26" height="20" viewBox="0 0 26 20" id="connect-off" x="309" y="150"><title>connect_off</title><defs><path d="M12 3h4c1.052 0 2 .834 2 2v10c0 1.168-.942 2-2 2H2c-1.052 0-2-.834-2-2V5c0-1.168.945-2 2-2h4" id="apa"/><mask id="apc" x="0" y="0" width="18" height="14" fill="#fff"><use xlink:href="#apa"/></mask><path d="M20 9h4c1.052 0 2 .834 2 2v10c0 1.168-.942 2-2 2H10c-1.052 0-2-.834-2-2V11c0-1.168.945-2 2-2h4" id="apb"/><mask id="apd" x="0" y="0" width="18" height="14" fill="#fff"><use xlink:href="#apb"/></mask></defs><g transform="translate(0 -3)" fill="none" fill-rule="evenodd"><path d="M0 0h26v26H0z"/><use stroke="#B7BFCB" mask="url(#apc)" stroke-width="4" transform="rotate(-180 9 10)" xlink:href="#apa"/><use stroke="#B7BFCB" mask="url(#apd)" stroke-width="4" xlink:href="#apb"/></g></svg><svg width="26" height="20" viewBox="0 0 26 20" id="connect-on" x="202" y="180"><title>connect_on</title><defs><path d="M12 3h4c1.052 0 2 .834 2 2v10c0 1.168-.942 2-2 2H2c-1.052 0-2-.834-2-2V5c0-1.168.945-2 2-2h4" id="aqa"/><mask id="aqc" x="0" y="0" width="18" height="14" fill="#fff"><use xlink:href="#aqa"/></mask><path d="M20 9h4c1.052 0 2 .834 2 2v10c0 1.168-.942 2-2 2H10c-1.052 0-2-.834-2-2V11c0-1.168.945-2 2-2h4" id="aqb"/><mask id="aqd" x="0" y="0" width="18" height="14" fill="#fff"><use xlink:href="#aqb"/></mask></defs><g transform="translate(0 -3)" fill="none" fill-rule="evenodd"><path d="M0 0h26v26H0z"/><use stroke="#2D9FFF" mask="url(#aqc)" stroke-width="4" transform="rotate(-180 9 10)" xlink:href="#aqa"/><use stroke="#2D9FFF" mask="url(#aqd)" stroke-width="4" xlink:href="#aqb"/></g></svg><svg width="22" height="21" viewBox="0 0 22 21" id="connections" x="64" y="287"><title>connections</title><g transform="translate(-1 -2)" fill="none" fill-rule="evenodd"><path opacity=".391" d="M0 0h24v24H0z"/><path d="M15.19 11.136A5.003 5.003 0 0 1 13.1 8h-2.2a5.001 5.001 0 0 1-1.925 3.019l1.317 2.28A4.99 4.99 0 0 1 12 13c.672 0 1.313.133 1.898.373l1.291-2.237zm1.862.774A5 5 0 1 0 13.1 6h-2.2A5.002 5.002 0 0 0 1 7a5 5 0 0 0 6.155 4.866l1.432 2.48a5 5 0 1 0 6.975.145l1.49-2.58zM6 10a3 3 0 1 0 0-6 3 3 0 0 0 0 6zm12 0a3 3 0 1 0 0-6 3 3 0 0 0 0 6zm-6 11a3 3 0 1 0 0-6 3 3 0 0 0 0 6z" fill="#F5F5F5"/></g></svg><svg width="36" height="36" viewBox="0 0 36 36" id="cost_close" x="315" y="202"><title>icons/cost_close</title><path d="M18 36c9.941 0 18-8.059 18-18S27.941 0 18 0 0 8.059 0 18s8.059 18 18 18zm0-2C9.163 34 2 26.837 2 18S9.163 2 18 2s16 7.163 16 16-7.163 16-16 16zm-6-19h12l-6 6-6-6z" fill="#DFDFDF" fill-rule="evenodd"/></svg><svg width="36" height="36" viewBox="0 0 36 36" id="cost_open" x="279" y="202"><title>icons/cost_open</title><path d="M18 36c9.941 0 18-8.059 18-18S27.941 0 18 0 0 8.059 0 18s8.059 18 18 18zm0-2C9.163 34 2 26.837 2 18S9.163 2 18 2s16 7.163 16 16-7.163 16-16 16zm6-13H12l6-6 6 6z" fill="#9DA3A5" fill-rule="evenodd"/></svg><svg width="20" height="18" viewBox="0 0 20 18" id="dashboard" x="81" y="252"><title>dashboard</title><path d="M20 5V4h-9v6h9V5zm-2 1h-5v2h5V6zM9 5V4H0v6h9V5zM7 6H2v2h5V6zm13 7v-1h-9v6h9v-5zm-2 1h-5v2h5v-2zm-9-1v-1H0v6h9v-5zm-2 1H2v2h5v-2zM0 0h20v2H0V0z" fill="#F5F5F5" fill-rule="evenodd"/></svg><svg width="17" height="17" viewBox="0 0 17 17" id="dismiss-dark" x="335" y="150"><title>FA54B963-BC51-4563-B761-3FA6601DBCA1</title><path d="M8.25 9.932l-6.518 6.52L0 14.718l6.519-6.518L0 1.682 1.682 0l6.519 6.519L14.719 0l1.732 1.732L9.932 8.25l6.47 6.47-1.683 1.682-6.469-6.47z" fill="#515A5F" fill-rule="evenodd"/></svg><svg width="20" height="19" viewBox="0 0 20 19" id="download" x="209" y="287"><title>download</title><path d="M18.5 19H0v-6.415h2V17h16v-4.415h2V19h-1.5zM9 10.387V0h2v10.043l3.248-3.248 1.414 1.414-4.42 4.42.028.028-1.414 1.414L4.2 8.414 5.613 7 9 10.387z" fill="#F5F5F5" fill-rule="evenodd"/></svg><svg width="12" height="6" viewBox="0 0 12 6" id="dropdown" x="339" y="180"><title>dropdown</title><path d="M0 0h12L6 6 0 0z" fill="#515A5F" fill-rule="evenodd"/></svg><svg width="20" height="20" viewBox="0 0 20 20" id="info" x="149" y="287"><title>icons/info</title><g fill="#2D9FFF" fill-rule="evenodd"><path d="M10 20c5.523 0 10-4.477 10-10S15.523 0 10 0 0 4.477 0 10s4.477 10 10 10zm0-2a8 8 0 1 1 0-16 8 8 0 0 1 0 16z"/><path d="M9.48 14H12v2H7l1.48-6H6V8h5l-1.52 6zM11 6a1 1 0 1 0 0-2 1 1 0 0 0 0 2z"/></g></svg><svg width="68" height="30" viewBox="0 0 68 30" id="logo" x="202" y="150"><title>logo/yoti_logo</title><g fill="none" fill-rule="evenodd"><path d="M68 0v30H0V0h68z" fill="#333B40"/><path d="M30 3H3v24h27V3z" fill="#BFC2C4"/><path d="M31 27h34V3H31v24z" fill="#2D9FFF"/><circle fill="#333B40" cx="31.5" cy="15.5" r="7.5"/><circle fill="#FFF" cx="31.5" cy="15.5" r="4.5"/><path fill="#333B40" d="M30 3h3v6h-3zM30 21h3v6h-3zM22.383 10.262L20.166 8l-5.68 5.07L9.666 8l-2.419 2.128L13 16.058V23h3l.008-6.942 6.375-5.796zM54 11h-5v12h-3V11h-5V8h13v3zM58 8v14h3V8h-3z"/></g></svg><svg width="39" height="39" viewBox="0 0 39 39" id="logo_circle" x="240" y="202"><title>logo/logo_circle</title><g fill="none" fill-rule="evenodd"><path stroke="#FFF" stroke-width="4" fill="#FFF" d="M0 0h39v39H0z"/><g transform="translate(4 4)"><path d="M15 2H2v27h13V2z" fill="#BFC2C4"/><path d="M15 29h14V2H15v27z" fill="#2D9FFF"/><path d="M0 0v31h31V0H0zm15 3v25H3V3h12zm1 25V3h12v25H16z" fill="#333B40"/><circle fill="#333B40" cx="15.5" cy="15.5" r="7.5"/><circle fill="#FFF" cx="15.5" cy="15.5" r="4.5"/><path fill="#333B40" d="M14 3h3v6h-3zM14 22h3v6h-3z"/></g></g></svg><svg width="20" height="14" viewBox="0 0 20 14" id="menu" x="319" y="180"><title>icons/menu</title><path d="M0 0h20v2H0V0zm0 6h20v2H0V6zm0 6h20v2H0v-2z" fill="#8895A7" fill-rule="evenodd"/></svg><svg width="12" height="6" viewBox="0 0 12 6" id="menu_dropdown_closed" x="333" y="170"><title>menu_dropdown_closed</title><path d="M0 0h12L6 6 0 0z" fill="#BFC2C4" fill-rule="evenodd"/></svg><svg width="12" height="6" viewBox="0 0 12 6" id="menu_dropdown_open" x="309" y="170"><title>menu_dropdown_open</title><path d="M12 6H0l6-6 6 6z" fill="#FFF" fill-rule="evenodd"/></svg><svg width="4" height="4" viewBox="0 0 4 4" id="menu_section_highlight" x="345" y="170"><title>menu_section_highlight</title><circle cx="46" cy="90" r="2" transform="translate(-44 -88)" fill="#FFF" fill-rule="evenodd"/></svg><svg width="22" height="22" viewBox="0 0 22 22" id="messages" x="42" y="287"><title>messages</title><path d="M22 1.5V14h-2V2H2v12H0V0h22v1.5zM5.919 22H4v-6H0v-2h6v4.873l4.975-4.898L11 14h11v2h-9.966l-4.748 4.748-1.315 1.315L5.919 22zM4 4h14v2H4V4zm0 4h8v2H4V8z" fill="#F5F5F5" fill-rule="evenodd"/></svg><svg width="20" height="23" viewBox="0 0 20 23" id="pages" y="287"><title>pages</title><path d="M17.512 22.005h1.5v-20h-2v18h-15v2h15.5zM.012 6.01v11.995h15v-18h-9v.009L5.998 0 0 5.998l.012.012zm6-3.195v3.19h-3.19l3.19-3.19zm-4 5.19v8h11v-14h-5v6h-6z" fill="#F5F5F5" fill-rule="evenodd"/></svg><svg width="24" height="18" viewBox="0 0 24 18" id="read" x="57" y="252"><title>read</title><g fill="#F5F5F5" fill-rule="evenodd"><path d="M11 0h2v4h-2V0zm6.083 1.617l1.912.585-.877 2.869-1.913-.585.878-2.869zm4.35 3.296l1.658 1.119-1.118 1.658-1.658-1.119 1.118-1.658zM.91 6.032l1.658-1.119 1.118 1.658L2.027 7.69.91 6.032zm4.096-3.83l1.912-.585.878 2.87-1.913.584-.877-2.869zM12 18c2.649 0 5.225-1.01 7.64-2.677a20.344 20.344 0 0 0 2.254-1.808c.403-.374.691-.67.851-.848l.597-.667-.597-.667c-.16-.179-.448-.474-.851-.848a20.344 20.344 0 0 0-2.255-1.808C17.225 7.01 14.65 6 12 6S6.775 7.01 4.36 8.677a20.344 20.344 0 0 0-2.254 1.808c-.403.374-.691.67-.851.848L.658 12l.597.667c.16.179.448.474.851.848a20.344 20.344 0 0 0 2.255 1.808C6.775 16.99 9.35 18 12 18zm0-2c-2.184 0-4.393-.866-6.503-2.323a18.359 18.359 0 0 1-2.032-1.63c-.355-.329-.6-.58-.72-.714v1.334c.12-.134.365-.385.72-.715.6-.555 1.282-1.111 2.032-1.63C7.607 8.867 9.817 8 12 8c2.184 0 4.393.866 6.503 2.323.75.518 1.432 1.074 2.032 1.63.355.329.6.58.72.714v-1.334c-.12.134-.365.385-.72.715-.6.555-1.282 1.111-2.032 1.63C16.393 15.133 14.183 16 12 16z"/><path d="M12 18a6 6 0 1 0 0-12 6 6 0 0 0 0 12zm0-2a4 4 0 1 1 0-8 4 4 0 0 1 0 8z"/></g></svg><svg width="39" height="29" viewBox="0 0 39 29" id="receipt_confirmed" x="270" y="150"><title>receipt_confirmed</title><path d="M18.364 24.133l20.105-19.89L34.227 0 14.229 19.998l-9.986-9.986L0 14.255l10.194 9.777-.01.01.593.55 3.66 3.51 3.948-3.948-.021-.02z" fill="#39C48E" fill-rule="evenodd"/></svg><svg width="32" height="35" viewBox="0 0 32 35" id="reload" y="252"><title>icon_reload</title><defs><path d="M28 8.417A15.961 15.961 0 0 0 16 3C7.163 3 0 10.163 0 19s7.163 16 16 16a15.96 15.96 0 0 0 11.865-5.265l-2.908-2.631C22.812 29.47 19.744 31 16.444 31 9.373 31 4 25.627 4 19.444 4 12.373 9.373 7 16.444 7c3.286 0 6.343 1.517 8.486 4H17v4h15V0h-4v8.417z" id="bja"/></defs><use fill="#FFF" xlink:href="#bja" fill-rule="evenodd"/></svg><svg width="19" height="22" viewBox="0 0 19 22" id="reports" x="41" y="310"><title>reports</title><path d="M17.5 22H19V2h-2v18H2v2h15.5zM2 2v14h11V2H2zM0 1v17h15V0H0v1zm4 3h7v2H4V4zm0 4h7v2H4V8zm0 4h7v2H4v-2z" fill="#F5F5F5" fill-rule="evenodd"/></svg><svg width="18" height="20" viewBox="0 0 18 20" id="sdk-documentation" x="60" y="310"><title>icons/sdk_documentation</title><path d="M0 .993A.995.995 0 0 1 1 0h14c.552 0 1 .445 1 .993v16.014A.995.995 0 0 1 15 18H1c-.552 0-1-.445-1-.993V.993zm1 .503C1 1.222 1.229 1 1.5 1h11a.5.5 0 0 1 .5.496v15.008a.502.502 0 0 1-.5.496h-11a.5.5 0 0 1-.5-.496V1.496zm13 0a.5.5 0 0 1 1 0v15.008a.5.5 0 0 1-1 0V1.496zm-10 2C4 3.221 4.228 3 4.491 3h5.018a.49.49 0 0 1 .491.495v2.01A.498.498 0 0 1 9.509 6H4.491A.49.49 0 0 1 4 5.505v-2.01zM5 4h4v1H5V4zm12 14.507a.496.496 0 0 1-.499.493H5.5a.5.5 0 1 0 0 1H16.5c.827 0 1.499-.668 1.499-1.493V2.493a.5.5 0 1 0-1 0v16.014zM2 11.5c0-.276.228-.5.51-.5h8.98a.51.51 0 0 1 .51.5c0 .276-.228.5-.51.5H2.51a.51.51 0 0 1-.51-.5zm0 2c0-.276.228-.5.51-.5h8.98a.51.51 0 0 1 .51.5c0 .276-.228.5-.51.5H2.51a.51.51 0 0 1-.51-.5zm0-4c0-.276.228-.5.51-.5h8.98a.51.51 0 0 1 .51.5c0 .276-.228.5-.51.5H2.51A.51.51 0 0 1 2 9.5z" fill="#BFC2C4" fill-rule="evenodd"/></svg><svg width="17" height="16" viewBox="0 0 17 16" id="sdk-download" x="119" y="252"><title>icons/sdk_download</title><path d="M9 10.68V.5C9 .23 8.776 0 8.5 0c-.268 0-.5.224-.5.5v10.363L4.269 7.132a.45.45 0 0 0-.637.637l3.823 3.823c.254.254.588.386.924.393a.492.492 0 0 0 .334-.034c.238-.055.464-.174.648-.359l3.824-3.823a.45.45 0 1 0-.637-.637L9 10.68zM15.55 4c.266 0 .45.156.45.306v10.388c0 .148-.186.306-.441.306H1.44c-.26 0-.441-.155-.441-.306V4.306C1 4.154 1.18 4 1.45 4h2.815a.5.5 0 1 0 0-1H1.45C.66 3 0 3.563 0 4.306v10.388C0 15.435.66 16 1.441 16H15.56c.775 0 1.441-.567 1.441-1.306V4.306C17 3.564 16.335 3 15.55 3h-2.815a.5.5 0 1 0 0 1h2.815z" fill="#BFC2C4" fill-rule="evenodd"/></svg><svg width="19" height="22" viewBox="0 0 19 22" id="sdk_documentation" x="22" y="310"><title>sdk_documentation</title><path d="M5 10H4V4h7v6H5zm1-2V6h3v2H6zM2 2v14h11V2H2zM0 1v17h15V0H0v1zm4 11h7v2H4v-2zM17 2h2v18h-2V2zM2 20h17v2H2v-2z" fill="#F5F5F5" fill-rule="evenodd"/></svg><svg width="19" height="20" viewBox="0 0 19 20" id="search" x="130" y="287"><title>search</title><defs><path id="boa" d="M16 13.757h2v8.485h-2z"/><mask id="bob" x="0" y="0" width="2" height="8.485" fill="#fff"><use xlink:href="#boa"/></mask></defs><g transform="translate(-2 -2)" stroke="#BFC2C4" stroke-width="2" fill="none" fill-rule="evenodd"><circle cx="10" cy="10" r="7"/><path d="M10 6a4 4 0 0 0-4 4"/><use mask="url(#bob)" transform="rotate(135 17 18)" xlink:href="#boa"/></g></svg><svg width="22" height="22" viewBox="0 0 22 22" id="setting" y="310"><title>setting</title><defs><circle id="bpa" cx="11" cy="11" r="5"/><mask id="bpc" x="0" y="0" width="10" height="10" fill="#fff"><use xlink:href="#bpa"/></mask><path d="M14.084 3l-3-3-3 3H3v5.084L.084 11 3 13.916V19h5.084l3 3 3-3H19v-4.916L22.084 11 19 7.916V3h-4.916z" id="bpb"/><mask id="bpd" x="0" y="0" width="22" height="22" fill="#fff"><use xlink:href="#bpb"/></mask></defs><g stroke="#F5F5F5" stroke-width="4" fill="none" fill-rule="evenodd"><use mask="url(#bpc)" xlink:href="#bpa"/><use mask="url(#bpd)" xlink:href="#bpb"/></g></svg><svg width="12" height="6" viewBox="0 0 12 6" id="sort" x="321" y="170"><title>sort</title><path d="M0 0h12L6 6 0 0z" fill="#8895A7" fill-rule="evenodd"/></svg><svg width="23" height="16" viewBox="0 0 23 16" id="steps_tick" x="252" y="180"><title>icons/steps_tick</title><path d="M8.485 12.092L3.18 6.785a1.504 1.504 0 0 0-2.118.004 1.494 1.494 0 0 0-.003 2.118l6.37 6.37c.288.288.67.433 1.053.434.388.005.77-.141 1.06-.432L22.28 2.54A1.5 1.5 0 0 0 20.157.42L8.485 12.092z" fill="#FFF" fill-rule="evenodd"/></svg><svg width="20" height="20" viewBox="0 0 20 20" id="support" x="169" y="287"><title>support</title><defs><path d="M10 20c5.523 0 10-4.477 10-10S15.523 0 10 0 0 4.477 0 10s4.477 10 10 10z" id="bsa"/><mask id="bsc" x="0" y="0" width="20" height="20" fill="#fff"><use xlink:href="#bsa"/></mask><path d="M10 15a5 5 0 1 0 0-10 5 5 0 0 0 0 10z" id="bsb"/><mask id="bsd" x="0" y="0" width="10" height="10" fill="#fff"><use xlink:href="#bsb"/></mask></defs><g fill="none" fill-rule="evenodd"><use stroke="#F5F5F5" mask="url(#bsc)" stroke-width="4" xlink:href="#bsa"/><use stroke="#F5F5F5" mask="url(#bsd)" stroke-width="4" xlink:href="#bsb"/><path fill="#F5F5F5" d="M7.243 12l1.414 1.414-4.243 4.242L3 16.242zM17.657 16.243l-1.414 1.414-4.242-4.243L13.415 12zM8.657 7.243L7.243 8.657 3.001 4.414 4.415 3zM16.243 3l1.414 1.414-4.243 4.242L12 7.242z"/></g></svg><svg width="22" height="16" viewBox="0 0 22 16" id="upload_logo" x="275" y="180"><title>upload_logo</title><path d="M18 10V6h-2v4h-4v2h4v4h2v-4h4v-2h-4zm4-9V0H0v14h2V2h18v6h2V1zM0 14h14v2H0v-2zm20 0h2v2h-2v-2z" fill="#bfc2c4" fill-rule="evenodd"/></svg><svg width="40" height="40" viewBox="0 0 40 40" id="user_selfie_ph" x="200" y="202"><title>user_selfie_ph</title><g fill="none" fill-rule="evenodd"><path fill-opacity=".01" fill="#FFF" d="M0 0h40v40H0z"/><path d="M32.684 33.46C30.004 30.756 24.554 29 20 29c-4.727 0-9.869 2.666-11.685 4.46-.454.447-.537 1.215 0 1.783C9.449 36.445 15.1 40 19.943 40c4.61 0 10.06-2.17 12.74-4.757.422-.573.422-1.326 0-1.784zM20.5 27a8.5 8.5 0 1 0 0-17 8.5 8.5 0 0 0 0 17z" fill="#BFC2C4"/></g></svg><svg width="202" height="202" viewBox="0 0 202 202" id="user_selfie_ph_large"><title>user selfie</title><path d="M142.425 93.412c0 22.247-18.65 40.897-40.898 40.897-23.761 0-42.411-18.65-42.411-40.897C59.116 69.65 77.766 51 101.527 51c22.248 0 40.898 18.65 40.898 42.412zm19.69 78.764c-13.495-13.766-35.899-22.72-60.588-22.72-18.51 0-35.014 5.928-46.955 12.118-5.515 2.858-10.87 6.324-15.147 10.602-2.103 2.315-2.122 6.098 0 9.089 3.293 2.657 6.804 5.57 10.602 7.573 13.341 9.252 31.143 16.662 51.5 16.662 24.684 0 47.093-11.056 60.589-24.235 2.123-2.92 2.123-6.755 0-9.089z" fill="#BFC2C4" fill-rule="evenodd"/></svg><svg width="150" height="150" viewBox="0 0 150 150" id="user_selfie_ph_medium" x="202"><title>user_selfie_ph_medium</title><g fill="none" fill-rule="evenodd"><path fill-opacity=".01" fill="#FFF" d="M0 0h150v150H0z"/><path d="M122.564 125.473C112.512 115.341 92.074 108.75 75 108.75c-17.726 0-37.008 9.998-43.82 16.723-1.7 1.678-2.013 4.557 0 6.69C35.435 136.667 56.624 150 74.785 150c17.286 0 37.727-8.137 47.779-17.838 1.581-2.15 1.581-4.972 0-6.689zM76.875 101.25c17.604 0 31.875-14.27 31.875-31.875 0-17.604-14.27-31.875-31.875-31.875C59.271 37.5 45 51.77 45 69.375c0 17.604 14.27 31.875 31.875 31.875z" fill="#BFC2C4"/></g></svg><svg width="24" height="17" viewBox="0 0 24 17" id="users" x="228" y="180"><title>users</title><g transform="translate(0 -3)" fill="#F5F5F5" fill-rule="evenodd"><path d="M9 11a2 2 0 1 1-4 0 2 2 0 0 1 4 0zM7 7a4 4 0 1 0 0 8 4 4 0 0 0 0-8zM1.363 19.89C2.335 18.908 4.5 17.714 7 17.75c2.5-.036 4.626 1.003 5.804 2.14L14 18.625C12.138 16.968 9.689 16 7 16c-2.684 0-5.137.972-7 2.625l1.363 1.265zM19 7a2 2 0 1 1-4 0 2 2 0 0 1 4 0zm-2-4a4 4 0 1 0 0 8 4 4 0 0 0 0-8zm-5.637 12.89c.972-.982 3.137-2.176 5.637-2.14 2.5-.036 4.626 1.003 5.804 2.14L24 14.625C22.138 12.968 19.689 12 17 12c-2.684 0-5.137.972-7 2.625l1.363 1.265z"/></g></svg></svg>